<svg width="35" height="35" viewBox="0 0 15 15" fill="none" xmlns="http://www.w3.org/2000/svg">
<rect width="35" height="35" transform="matrix(0 -1 1 0 0 15)" fill="white"/>
<path d="M4.50903 13V7.4H5.79703L7.50903 10.896L9.20503 7.4H10.493V13H9.41303V9.24L7.93303 12.216H7.07703L5.58903 9.24V13H4.50903Z" fill="#1A1A9F"/>
<path d="M7.61088 8.096C7.05088 8.096 6.56821 7.976 6.16288 7.736C5.76288 7.49067 5.45354 7.152 5.23488 6.72C5.02154 6.28267 4.91488 5.77867 4.91488 5.208C4.91488 4.63733 5.02154 4.13333 5.23488 3.696C5.45354 3.25867 5.76288 2.91733 6.16288 2.672C6.56821 2.42667 7.05088 2.304 7.61088 2.304C8.28821 2.304 8.84288 2.472 9.27488 2.808C9.70688 3.144 9.97621 3.61867 10.0829 4.232H8.90688C8.83754 3.93333 8.69088 3.70133 8.46688 3.536C8.24821 3.36533 7.96021 3.28 7.60288 3.28C7.27221 3.28 6.98688 3.36 6.74688 3.52C6.51221 3.67467 6.33088 3.896 6.20288 4.184C6.07488 4.46667 6.01088 4.808 6.01088 5.208C6.01088 5.60267 6.07488 5.944 6.20288 6.232C6.33088 6.52 6.51221 6.74133 6.74688 6.896C6.98688 7.05067 7.27221 7.128 7.60288 7.128C7.96021 7.128 8.24821 7.05067 8.46688 6.896C8.68554 6.736 8.82954 6.51467 8.89888 6.232H10.0829C9.97621 6.81333 9.70688 7.26933 9.27488 7.6C8.84288 7.93067 8.28821 8.096 7.61088 8.096Z" fill="#1A1A9F"/>
</svg>
